<?xml version="1.0" encoding="UTF-8"?>
<svg width="32px" height="32px" viewBox="0 0 32 32" version="1.1" xmlns="http://www.w3.org/2000/svg" xmlns:xlink="http://www.w3.org/1999/xlink">
    <title>active_large</title>
    <g id="active_large" stroke="none" stroke-width="1" fill="none" fill-rule="evenodd" fill-opacity="0.65">
        <path d="M14.7389123,1.97376924 L10.7105473,10.1349264 L1.70399742,11.4441892 C1.39795473,11.4886598 1.11510689,11.632778 0.899242031,11.8542326 L0.783964321,11.9881918 C0.362121646,12.5452714 0.411306394,13.3423521 0.92465876,13.842747 L7.44150623,20.1961132 L5.90355319,29.1662084 C5.85127485,29.4710145 5.90093459,29.7845537 6.0448445,30.0582866 L6.12953124,30.19904 C6.52687167,30.7802669 7.30557286,30.9841809 7.94388829,30.6485986 L15.9999342,26.4125617 L24.0559291,30.6485986 C24.329662,30.7925085 24.6432013,30.8421683 24.9480073,30.7898899 L25.0976291,30.7558559 C25.7791343,30.5615076 26.2187968,29.8806281 26.0962642,29.1662084 L24.5570108,20.1961132 L31.0751586,13.842747 C31.2966132,13.6268821 31.4407314,13.3440343 31.485202,13.0379916 L31.4990693,12.8851757 C31.5248299,12.1769689 31.0131381,11.5484216 30.29582,11.4441892 L21.2879697,10.1349264 L17.2609051,1.97376924 C17.1240387,1.69644752 16.8995694,1.4719782 16.6222476,1.33511175 C15.9258185,0.991403436 15.0826206,1.27734014 14.7389123,1.97376924 Z" fill="#FFFFFF" fill-rule="nonzero"></path>
    </g>
</svg>