<?xml version="1.0" encoding="UTF-8"?>
<svg width="24px" height="24px" viewBox="0 0 24 24" version="1.1" xmlns="http://www.w3.org/2000/svg" xmlns:xlink="http://www.w3.org/1999/xlink">
    <title>blank</title>
    <g id="blank" stroke="none" stroke-width="1" fill="none" fill-rule="evenodd">
        <path d="M11.0440141,1.36721217 L7.99025361,7.55389579 L1.16270772,8.5464015 C0.930707618,8.58011309 0.716290705,8.68936396 0.552651217,8.85724082 L0.465263276,8.95879059 C0.145479312,9.38109283 0.182764525,9.98533143 0.571918737,10.364663 L5.51210956,15.1809245 L4.34624193,21.9808354 C4.30661158,22.2118981 4.34425687,22.449581 4.45334986,22.6570882 L4.51754788,22.7637883 C4.81875755,23.2043959 5.40906329,23.3589758 5.89294757,23.1045828 L11.9999501,19.8933936 L18.106914,23.1045828 C18.3144212,23.2136758 18.5521042,23.2513211 18.7831668,23.2116907 L18.8965898,23.1858907 C19.4132147,23.0385622 19.7465072,22.5224116 19.6536196,21.9808354 L18.4867662,15.1809245 L23.4279428,10.364663 C23.5958197,10.2010235 23.7050706,9.98660663 23.7387821,9.75460653 L23.7492945,9.63876226 C23.7688226,9.10189578 23.3809273,8.62541641 22.8371538,8.5464015 L16.0086222,7.55389579 L12.9558474,1.36721217 C12.8520938,1.15698441 12.6819316,0.986822183 12.4717039,0.883068582 C11.9437657,0.622515508 11.3045672,0.839273974 11.0440141,1.36721217 Z M11.9989257,2.90186927 L14.6946897,8.36268702 L14.7622884,8.48272623 C14.9586747,8.79090299 15.2806509,9.0011904 15.6467301,9.05438483 L21.6717806,9.92959486 L17.3121827,14.1801209 L17.2189078,14.2815053 C16.986501,14.5635116 16.8860019,14.9347115 16.9485357,15.2993115 L17.9765902,21.2999631 L12.5883241,18.4671906 L12.4471079,18.4036465 C12.1110678,18.2765582 11.7338526,18.2977396 11.4115375,18.4671906 L6.02228556,21.2999631 L7.05132592,15.2993115 L7.06719472,15.1624642 C7.08945662,14.797711 6.95257627,14.4383321 6.68767886,14.1801209 L2.32709515,9.92959486 L8.35313148,9.05438483 C8.76497059,8.9945411 9.12099179,8.73587656 9.30517184,8.36268702 L11.9989257,2.90186927 Z" fill="#FADB37" fill-rule="nonzero"></path>
    </g>
</svg>