<?xml version="1.0" encoding="UTF-8"?>
<svg width="32px" height="32px" viewBox="0 0 32 32" version="1.1" xmlns="http://www.w3.org/2000/svg" xmlns:xlink="http://www.w3.org/1999/xlink">
    <title>blank_large</title>
    <g id="blank_large" stroke="none" stroke-width="1" fill="none" fill-rule="evenodd">
        <path d="M14.7389123,1.97376924 L10.7105473,10.1349264 L1.70399742,11.4441892 C1.39795473,11.4886598 1.11510689,11.632778 0.899242031,11.8542326 L0.783964321,11.9881918 C0.362121646,12.5452714 0.411306394,13.3423521 0.92465876,13.842747 L7.44150623,20.1961132 L5.90355319,29.1662084 C5.85127485,29.4710145 5.90093459,29.7845537 6.0448445,30.0582866 L6.12953124,30.19904 C6.52687167,30.7802669 7.30557286,30.9841809 7.94388829,30.6485986 L15.9999342,26.4125617 L24.0559291,30.6485986 C24.329662,30.7925085 24.6432013,30.8421683 24.9480073,30.7898899 L25.0976291,30.7558559 C25.7791343,30.5615076 26.2187968,29.8806281 26.0962642,29.1662084 L24.5570108,20.1961132 L31.0751586,13.842747 C31.2966132,13.6268821 31.4407314,13.3440343 31.485202,13.0379916 L31.4990693,12.8851757 C31.5248299,12.1769689 31.0131381,11.5484216 30.29582,11.4441892 L21.2879697,10.1349264 L17.2609051,1.97376924 C17.1240387,1.69644752 16.8995694,1.4719782 16.6222476,1.33511175 C15.9258185,0.991403436 15.0826206,1.27734014 14.7389123,1.97376924 Z M15.9985828,3.99821052 L19.5546971,11.2018424 L19.6438698,11.3601921 C19.9029326,11.7667231 20.3276671,12.0441235 20.8105801,12.1142949 L28.7585191,13.2688273 L23.0075602,18.8759042 L22.8845166,19.0096452 C22.5779374,19.3816536 22.4453642,19.8713216 22.5278555,20.3522833 L23.8840126,28.2680365 L16.7760871,24.5311876 L16.5898019,24.4473634 C16.146515,24.279715 15.6489119,24.3076564 15.2237303,24.5311876 L8.11450435,28.2680365 L9.47196185,20.3522833 L9.49289516,20.1717613 C9.52226192,19.6905975 9.34169635,19.2165232 8.99225722,18.8759042 L3.23999785,13.2688273 L11.1892373,12.1142949 C11.7325144,12.0353521 12.2021594,11.694135 12.4451203,11.2018424 L15.9985828,3.99821052 Z" fill="#FFFFFF" fill-rule="nonzero"></path>
    </g>
</svg>