<?xml version="1.0" encoding="UTF-8"?>
<svg width="24px" height="24px" viewBox="0 0 24 24" version="1.1" xmlns="http://www.w3.org/2000/svg" xmlns:xlink="http://www.w3.org/1999/xlink">
    <!-- Generator: Sketch 64 (93537) - https://sketch.com -->
    <title>Icon</title>
    <desc>Created with Sketch.</desc>
    <g id="Icon" stroke="none" stroke-width="1" fill="none" fill-rule="evenodd">
        <path d="M11.998895,0.296190745 C5.37327726,0.296190745 -3.55271368e-15,5.66873134 -3.55271368e-15,12.2965591 C-3.55271368e-15,17.5983793 3.43804291,22.0957549 8.2065134,23.6825439 C8.80690015,23.7930445 9.0256914,23.4224991 9.0256914,23.1042573 C9.0256914,22.8199023 9.015378,22.0648147 9.00948464,21.063679 C5.67162896,21.7885631 4.96737162,19.4547898 4.96737162,19.4547898 C4.42149851,18.0683753 3.63473403,17.6993032 3.63473403,17.6993032 C2.54519783,16.9552656 3.71724117,16.969999 3.71724117,16.969999 C4.92169803,17.0547162 5.55523497,18.2068694 5.55523497,18.2068694 C6.62561773,20.0404432 8.36416096,19.5107768 9.04779152,19.2035851 C9.15681881,18.4286073 9.46695724,17.8996777 9.80950919,17.5998526 C7.14497069,17.2970809 4.3434114,16.267215 4.3434114,11.6689155 C4.3434114,10.3591147 4.8111974,9.28725861 5.57880843,8.44892717 C5.45504773,8.14541878 5.04324872,6.92475516 5.69667577,5.27313909 C5.69667577,5.27313909 6.70370484,4.95047725 8.99622456,6.50337943 C9.95316001,6.23670457 10.9800792,6.10410382 12.0003683,6.09894712 C13.0199208,6.10410382 14.0461033,6.23670457 15.0045121,6.50337943 C17.2955585,4.95047725 18.3011142,5.27313909 18.3011142,5.27313909 C18.9560146,6.92475516 18.5442156,8.14541878 18.4211916,8.44892717 C19.1902759,9.28725861 19.6543786,10.3591147 19.6543786,11.6689155 C19.6543786,16.2790018 16.8483993,17.2933975 14.1757574,17.5902759 C14.6059732,17.9608213 14.9897787,18.6930722 14.9897787,19.8128119 C14.9897787,21.4165443 14.9750453,22.7108751 14.9750453,23.1042573 C14.9750453,23.4254458 15.1916265,23.7989379 15.8001166,23.6818072 C20.5649038,22.0913349 24,17.5969059 24,12.2965591 C24,5.66873134 18.6267227,0.296190745 11.998895,0.296190745" id="octocat" fill="#FFFFFF" fill-rule="nonzero"></path>
    </g>
</svg>