<svg viewBox="0 0 24 24"><path fill="#000" fill-rule="nonzero" d="M11.0668786 1.62096944L8.086 7.66l-6.66459784.96881831c-.22646313.03290702-.4357627.13955048-.59549673.30342074l-.08530232.09912616c-.31215191.41222346-.27575656 1.00204109.10411 1.37231949L5.667 15.105l-1.13804272 6.6376224c-.03868452.225548-.00193769.4575584.10455166.6601132l.06266585.1041536c.29402093.4300918.87023827.5809826 1.34257404.3326609L12 19.705l5.9612134 3.1345501c.2025548.1064894.4345652.1432362.6601133.1045517l.1107159-.0251843c.504295-.1438123.8296331-.6476443.7389624-1.1762951L18.332 15.105l4.8232492-4.7013153c.1638702-.159734.2705137-.3690336.3034207-.59549671l.0102615-.1130795c.019062-.52405348-.3595757-.98916107-.8903713-1.06629018L15.913 7.66l-2.9799164-6.03903056c-.1012774-.2052104-.2673784-.37131149-.4725889-.47258888-.5153382-.25433465-1.1392814-.0427494-1.3936161.47258888zM11.999 3.119l2.6314262 5.3304884.0659854.11717433c.1916993.30082173.5059911.50609036.8633333.55801523L21.441 9.979l-4.2555506 4.1490819-.0910488.0989646c-.2268601.2752759-.3249607.6376167-.2639193.993515L17.834 21.078l-5.2596683-2.7651648-.1378459-.0620276c-.3280201-.1240552-.6962326-.1033793-1.0108552.0620276L6.165 21.078l1.00448101-5.8574385.01549007-.1335812c.02173059-.3560479-.11188294-.7068498-.37045823-.9588984L2.558 9.979l5.88221733-.85432204c.40201004-.05841548.74953434-.31090666.9293187-.67518956L11.999 3.119z"/></svg>